<svg width="39" height="37" viewBox="0 0 39 37" fill="none" xmlns="http://www.w3.org/2000/svg">
<rect x="0.157837" y="0.00012207" width="38.1579" height="37" rx="18.5" fill="#E6E8EA"/>
<path d="M10.1578 11.9749C10.1578 11.4025 10.3623 10.9302 10.7713 10.5582C11.1802 10.1861 11.7119 10.0001 12.3662 10.0001C13.0089 10.0001 13.5288 10.1833 13.9261 10.5496C14.3351 10.9274 14.5396 11.4196 14.5396 12.0264C14.5396 12.5759 14.3409 13.0338 13.9437 13.4001C13.5347 13.7779 12.9972 13.9668 12.3312 13.9668H12.3136C11.671 13.9668 11.151 13.7779 10.7538 13.4001C10.3565 13.0223 10.1578 12.5473 10.1578 11.9749ZM10.3857 27.0001V15.5294H14.2767V27.0001H10.3857ZM16.4325 27.0001H20.3234V20.5951C20.3234 20.1944 20.3702 19.8853 20.4637 19.6678C20.6272 19.2786 20.8755 18.9494 21.2086 18.6804C21.5416 18.4114 21.9593 18.2769 22.4617 18.2769C23.7704 18.2769 24.4247 19.1412 24.4247 20.8698V27.0001H28.3157V20.4234C28.3157 18.7291 27.9068 17.4441 27.0888 16.5683C26.2709 15.6925 25.1901 15.2547 23.8464 15.2547C22.339 15.2547 21.1647 15.89 20.3234 17.1607V17.1951H20.3059L20.3234 17.1607V15.5294H16.4325C16.4558 15.8957 16.4675 17.0348 16.4675 18.9466C16.4675 20.8584 16.4558 23.5429 16.4325 27.0001Z" fill="#01101C"/>
</svg>
