<svg width="16" height="15" viewBox="0 0 16 15" fill="none" xmlns="http://www.w3.org/2000/svg">
<path fill-rule="evenodd" clip-rule="evenodd" d="M10.2595 1.49998H13.2872C14.2199 1.49998 14.9759 2.25573 14.9759 3.18798V6.21437C14.9759 6.43821 14.887 6.65289 14.7286 6.81117L8.99295 12.5443C8.33345 13.2035 7.26421 13.2035 6.60472 12.5443L3.92675 9.86755C3.26726 9.20834 3.26726 8.13957 3.92675 7.48036L9.66244 1.74719C9.82079 1.58891 10.0356 1.49998 10.2595 1.49998Z" stroke="#55636F" stroke-width="1.34602" stroke-linecap="round" stroke-linejoin="round"/>
<path d="M6.5323 12.4719L4.83262 13.3214C3.99842 13.7383 2.98405 13.4003 2.56695 12.5665C2.54054 12.5137 2.51692 12.4596 2.49619 12.4043L1.13267 8.76986C0.839031 7.98717 1.16272 7.10755 1.89376 6.70159L8.22103 3.18798" stroke="#55636F" stroke-width="1.34602" stroke-linecap="round" stroke-linejoin="round"/>
<path d="M12.8655 3.1879C13.0986 3.1881 13.2872 3.37718 13.2874 3.60978C13.2874 3.84249 13.0987 4.03146 12.8655 4.03165C12.6321 4.03165 12.4426 3.84261 12.4426 3.60978C12.4428 3.37706 12.6322 3.1879 12.8655 3.1879Z" fill="#55636F" stroke="#55636F" stroke-width="0.844195"/>
</svg>
